<?xml version="1.0" standalone="no"?><!DOCTYPE svg PUBLIC "-//W3C//DTD SVG 1.1//EN" "http://www.w3.org/Graphics/SVG/1.1/DTD/svg11.dtd"><svg t="1511172695101" class="icon" style="" viewBox="0 0 1024 1024" version="1.1" xmlns="http://www.w3.org/2000/svg" p-id="1022" xmlns:xlink="http://www.w3.org/1999/xlink" width="200" height="200"><defs><style type="text/css"></style></defs><path d="M512 14.894545C238.312727 14.894545 14.894545 238.312727 14.894545 512s223.418182 497.105455 497.105455 497.105455 497.105455-223.418182 497.105455-497.105455S785.687273 14.894545 512 14.894545z m0 956.974546c-253.207273 0-459.869091-206.661818-459.869091-459.869091s204.8-459.869091 459.869091-459.869091c253.207273 0 459.869091 206.661818 459.869091 459.869091S765.207273 971.869091 512 971.869091z" p-id="1023" fill="#2c2c2c"></path><path d="M316.509091 439.389091m-55.854546 0a55.854545 55.854545 0 1 0 111.709091 0 55.854545 55.854545 0 1 0-111.709091 0Z" p-id="1024" fill="#2c2c2c"></path><path d="M705.629091 439.389091m-55.854546 0a55.854545 55.854545 0 1 0 111.709091 0 55.854545 55.854545 0 1 0-111.709091 0Z" p-id="1025" fill="#2c2c2c"></path><path d="M709.352727 673.978182c-48.407273 65.163636-121.018182 104.261818-199.214545 104.261818-78.196364 0-150.807273-37.236364-199.214546-104.261818-5.585455-7.447273-18.618182-9.309091-26.065454-3.723637-7.447273 5.585455-9.309091 18.618182-3.723637 26.065455 55.854545 76.334545 139.636364 121.018182 230.865455 121.018182s175.010909-44.683636 227.141818-121.018182c5.585455-9.309091 3.723636-20.48-3.723636-26.065455-9.309091-5.585455-20.48-3.723636-26.065455 3.723637z" p-id="1026" fill="#2c2c2c"></path></svg>