<?xml version="1.0" standalone="no"?><!DOCTYPE svg PUBLIC "-//W3C//DTD SVG 1.1//EN" "http://www.w3.org/Graphics/SVG/1.1/DTD/svg11.dtd"><svg t="1613725038685" class="icon" viewBox="0 0 1024 1024" version="1.1" xmlns="http://www.w3.org/2000/svg" p-id="1804" xmlns:xlink="http://www.w3.org/1999/xlink" width="200" height="200"><defs><style type="text/css"></style></defs><path d="M512 512m-512 0a512 512 0 1 0 1024 0 512 512 0 1 0-1024 0Z" fill="#B26483" p-id="1805"></path><path d="M512 544m-347.73 0a347.73 347.73 0 1 0 695.46 0 347.73 347.73 0 1 0-695.46 0Z" fill="#CE6B8A" p-id="1806"></path><path d="M512 544m-208 0a208 208 0 1 0 416 0 208 208 0 1 0-416 0Z" fill="#FF7998" p-id="1807"></path><path d="M61.658 268.22l7.676 33.104 229.334 81.184 14.336-24.872-4.186-17.486a103.738 103.738 0 0 0 5.914-34.64c0-38.84-21.348-72.646-52.916-90.474 0.57-4.406 0.964-8.866 0.964-13.428 0-42.824-26.05-79.332-63.046-95.234-56.55 43.6-103.804 98.668-138.076 161.846z" fill="#9B5A6F" opacity=".55" p-id="1808"></path><path d="M1.096 544C17.628 811.848 239.988 1024 512 1024s494.372-212.152 510.904-480H1.096z" fill="#FF4F70" p-id="1809"></path><path d="M416 544c0-53.02 42.98-96 96-96s96 42.98 96 96" fill="#FFFFFF" p-id="1810"></path><path d="M314.732 357.462c-0.592 0-1.138 0.16-1.728 0.174-7.958-39.604-42.91-69.442-84.858-69.442-1.996 0-3.862 0.454-5.824 0.586-14.11-40.636-52.636-69.854-98.078-69.854-13.064 0-25.444 2.656-36.962 7.058C34.968 303.516 3.476 396.178 0.404 496h314.328C352.988 496 384 464.986 384 426.732c0-38.256-31.012-69.27-69.268-69.27zM939.736 230.692c-40.228 4.372-73.554 31.528-86.516 68.506-1.968-0.112-3.918-0.3-5.916-0.3-45.332 0-83.766 29.148-97.842 69.686-1.948-0.164-3.82-0.584-5.81-0.584-38.164 0-69.102 30.938-69.102 69.102-19.082 0-34.55 15.468-34.55 34.55 0 19.082 15.468 34.55 34.55 34.55h349.302c-1.132-101.716-31.902-196.278-84.116-275.51z" fill="#9B5A6F" p-id="1811" data-spm-anchor-id="a313x.7781069.0.i0" class="selected"></path><path d="M398.43 12.798a90.196 90.196 0 0 0-10.16 41.604c0 50.072 40.592 90.666 90.666 90.666 0.852 0 1.642-0.226 2.486-0.25 8 31.358 36.194 54.65 70.046 54.65C551.468 239.526 583.942 272 624 272c27.694 0 51.472-15.7 63.692-38.516 17.834 12.78 39.626 20.382 63.24 20.382 60.088 0 108.798-48.71 108.798-108.798 0-3.248-0.536-6.35-0.814-9.526C767.688 51.43 645.87 0 512 0c-39.05 0-77.024 4.518-113.57 12.798z" fill="#9B5A6F" opacity=".55" p-id="1812"></path><path d="M512 813.334c148.75 0 269.334-120.584 269.334-269.334H242.666c0 148.748 120.584 269.334 269.334 269.334z" fill="#FFBC94" opacity=".38" p-id="1813"></path><path d="M512 676.428c73.138 0 132.428-59.29 132.428-132.428H379.572c0 73.138 59.29 132.428 132.428 132.428z" fill="#FFE6B4" opacity=".38" p-id="1814"></path><path d="M363.364 730.326h-150.338l-36.564-47.032h223.464zM303.652 532.188h-18.622v130.354h101.304c-0.002 0-26.072-130.354-82.682-130.354z" fill="#674447" p-id="1815"></path><path d="M288.06 554.712h15.404v107.83h-83.8c0.002 0 21.568-107.83 68.396-107.83z" fill="#674447" p-id="1816"></path><path d="M283.726 490.102h8.938v193.192h-8.938z" fill="#674447" p-id="1817"></path><path d="M682.496 599.718h-168.948l-24.628-34.768h210.96v17.384c0 9.6-7.782 17.384-17.384 17.384z" fill="#9B5A6F" p-id="1818"></path><path d="M507.028 570.02l35.492-35.492h134.726l13.036 30.422-47.08 31.146z" fill="#9B5A6F" p-id="1819"></path><path d="M585.256 525.474h28.972v13.4h-28.972zM561.354 516.724h4.812v22.15h-4.812z" fill="#9B5A6F" p-id="1820"></path><path d="M588 712.684v26.718h20v95.554h16.254v-19.522l53.02-32.05 53.018 32.05v19.524h16.254v-17.642l56.13-33.93 49.908 30.17v21.404h16.254v-18.236l55.148-33.338 15.94 9.636c2.198-3.34 4.268-6.77 6.388-10.164l-10.726-6.484 22.716-13.732a512.098 512.098 0 0 0 11.016-20.684l-45.334 27.404-49.552-29.956h96.176l0.004-0.008c4.358-8.776 8.53-17.658 12.39-26.71H588z m36.254 88.726v-50.076l41.418 25.038-41.418 25.038z m3.466-62.006h99.106l-49.552 29.956-49.554-29.956z m102.572 62.006l-41.418-25.038 41.418-25.038v50.076z m16.254 1.88v-53.838l44.53 26.918-44.53 26.92z m6.578-63.886h99.106l-49.552 29.956-49.554-29.956z m99.46 60.124l-38.308-23.158 38.308-23.158v46.316z m59.802-23.156l-43.548 26.326v-52.65l43.548 26.324z" fill="#674447" p-id="1821"></path></svg>