<?xml version="1.0" encoding="utf-8"?>
<svg version="1.1" xmlns="http://www.w3.org/2000/svg" x="0" y="0"
     width="100%" height="100%" viewBox="0 0 1024 1024" enable-background="new 0 0 1024 1024">
    <path fill="#FF0000" d="M512.688,995.514c-65.973,0-126.864-36.847-155.484-93.986c-0.405-0.623-0.825-1.318-1.213-2.137
				c-3.222-6.848-11.962-10.058-19.046-6.963c-1.778,0.763-3.62,1.313-5.494,1.622c-17.359,5.396-35.381,8.141-53.67,8.141
				c-46.051,0-89.309-17.175-121.791-48.343c-46.609-44.659-62.506-111.912-40.713-171.684c0.218-0.895,0.509-1.773,0.849-2.638
				c1.356-3.465,1.227-7.207-0.372-10.56c-1.591-3.347-4.442-5.901-8.03-7.204c-1.777-0.627-3.424-1.448-4.919-2.466
				C44.402,630.867,8.23,574.551,8.23,511.854c0-62.993,38.192-121.224,97.404-148.78c0.953-0.593,1.963-1.112,3.013-1.567
				c7.189-3.129,10.395-11.313,7.116-18.228c-0.758-1.624-1.316-3.304-1.63-5.031c-20.35-59.689-4.387-124.05,41.858-168.391
				c32.482-31.162,75.731-48.337,121.774-48.337c19.372,0,38.379,3.063,56.62,9.102c1.146,0.236,2.268,0.534,3.368,0.933
				c7.649,2.75,15.881-1.139,18.586-8.024c0.664-1.727,1.561-3.341,2.642-4.814c29.687-55.875,88.365-90.511,153.708-90.511
				c65.617,0,126.25,36.501,155.055,93.125c0.621,0.93,1.196,1.906,1.704,2.942c3.231,6.848,11.956,10.068,19.063,6.972
				c1.803-0.795,3.701-1.34,5.624-1.639c17.27-5.371,35.234-8.086,53.441-8.086c46.062,0,89.294,17.175,121.784,48.344
				c46.424,44.488,62.393,111.467,40.938,171.063c-0.25,1.128-0.581,2.228-1.009,3.328c-2.756,7.013,0.994,14.979,8.425,17.639
				c1.923,0.696,3.708,1.614,5.331,2.757c58.08,28.509,94.092,84.707,94.092,147.212c0,62.989-38.2,121.244-97.444,148.812
				c-0.929,0.543-1.89,1.05-2.923,1.495c-7.158,3.114-9.913,11.114-7.102,18.221c0.774,1.993,1.471,3.671,1.761,5.614
				c20.05,59.536,4.056,123.656-42.069,167.843c-32.49,31.168-75.738,48.336-121.774,48.336h-0.01
				c-19.555-0.005-38.78-3.13-57.19-9.294c-1.033-0.229-2.06-0.531-3.054-0.902c-1.364-0.497-3.062-0.796-4.767-0.796
				c-5.968,0-11.357,3.59-13.472,8.951c-0.712,1.815-1.649,3.484-2.789,5.011C636.61,960.947,577.972,995.514,512.688,995.514z
				 M388.416,883.753c0.34,0.581,0.705,1.179,0.986,1.773c22.425,45.695,70.82,75.219,123.286,75.219
				c52.125,0,98.905-27.935,122.113-72.905c0.38-0.714,0.776-1.403,1.236-2.055c7.956-17.665,26.352-29.355,46.527-29.355
				c5.664,0,11.214,0.901,16.568,2.679c0.711,0.159,1.455,0.361,2.116,0.593c14.872,5.115,30.472,7.714,46.326,7.714
				c36.369,0,70.513-13.546,96.152-38.151c36.819-35.306,49.324-86.751,32.61-134.283c-0.274-0.785-0.5-1.603-0.638-2.412
				c-9.709-23.609,1.148-50.52,25.002-61.572c0.67-0.415,1.348-0.786,2.084-1.104c47.433-21.574,78.08-67.908,78.08-118.029
				c0-49.925-29.121-94.787-75.964-117.053c-0.792-0.364-1.502-0.787-2.205-1.245c-24.219-10.037-36.392-36.361-27.821-60.321
				c0.17-0.82,0.412-1.642,0.694-2.451c17.618-47.396,5.139-100.914-31.826-136.35c-25.656-24.599-59.8-38.152-96.169-38.152
				c-14.982,0-29.742,2.323-43.893,6.901c-0.784,0.248-1.577,0.445-2.368,0.592c-6.002,2.296-12.286,3.459-18.717,3.459
				c-19.289,0.01-36.957-10.592-45.455-27.116c-0.516-0.743-0.992-1.513-1.38-2.332C613.297,92.345,564.968,62.98,512.688,62.98
				c-52.127,0-98.923,27.921-122.115,72.904c-0.331,0.647-0.727,1.266-1.139,1.882c-7.932,17.72-26.326,29.466-46.561,29.469
				c-5.566,0-11.051-0.878-16.342-2.61c-0.888-0.166-1.784-0.402-2.657-0.692c-14.807-5.065-30.325-7.633-46.11-7.633
				c-36.342,0-70.496,13.545-96.126,38.137c-36.884,35.355-49.347,86.855-32.562,134.425c0.226,0.624,0.404,1.279,0.542,1.925
				c9.943,23.591-0.865,50.69-24.759,61.832c-0.711,0.445-1.455,0.839-2.229,1.188c-47.466,21.557-78.146,67.9-78.146,118.048
				c0,49.999,29.177,94.872,76.143,117.117c0.645,0.309,1.26,0.646,1.85,1.028c11.752,4.772,21.017,13.434,26.284,24.6
				c5.437,11.431,6.035,24.163,1.745,35.978c-0.153,0.701-0.371,1.376-0.637,2.058c-17.74,47.48-5.291,101.115,31.77,136.629
				c25.655,24.61,59.785,38.155,96.143,38.155c15.017,0,29.824-2.331,44.018-6.928c0.727-0.24,1.47-0.434,2.229-0.58
				c6.042-2.327,12.334-3.49,18.814-3.49C362.219,856.421,379.968,867.095,388.416,883.753z"/>
    <path fill="#00FF00" d="M415.212,309.313H240.147c-13.676,0-24.768,10.676-24.768,23.766c0,13.081,11.092,23.737,24.768,23.737
						h175.065c20.791,0,37.691,16.223,37.691,36.174c0,19.929-16.9,36.153-37.691,36.153h0.726
						c-13.627,0-24.734,10.658-24.734,23.739c0,13.101,11.107,23.761,24.734,23.761h-0.726c48.111,0,87.273-37.547,87.273-83.653
						C502.485,346.848,463.323,309.313,415.212,309.313z"/>
    <path fill="#0000FF" d="M415.212,547.068h-60.707c-13.659,0-24.79,10.648-24.79,23.745c0,13.102,11.131,23.754,24.79,23.754
						h60.707c20.791,0,37.691,16.223,37.691,36.178c0,19.932-16.9,36.15-37.691,36.15H240.147
						c-13.676,0-24.768,10.648-24.768,23.756c0,13.085,11.092,23.751,24.768,23.751h175.065c48.111,0,87.273-37.532,87.273-83.657
						C502.485,584.601,463.323,547.068,415.212,547.068z"/>
    <path fill="#FFFF00" d="M284.455,476.643h61.578c13.619,0,24.767-10.66,24.767-23.761c0-13.081-11.147-23.739-24.767-23.739
						l-61.578,0c-48.145,0-87.29,37.53-87.29,83.681c0,46.109,39.145,83.65,87.29,83.65h0.444c13.684,0,24.79-10.677,24.79-23.758
						c0-13.105-11.106-23.757-24.79-23.757h-0.444c-20.81,0-37.741-16.2-37.741-36.136
						C246.714,492.866,263.645,476.643,284.455,476.643z"/>
    <path fill="#FF00FF" d="M610.164,714.402h175.048c13.675,0,24.79-10.677,24.79-23.767c0-13.092-11.115-23.74-24.79-23.74
						H610.164c-20.777,0-37.684-16.224-37.684-36.174c0-19.921,16.906-36.157,37.684-36.157h-0.776
						c13.668,0,24.782-10.649,24.782-23.751c0-13.085-11.114-23.745-24.782-23.745h0.776c-48.112,0-87.259,37.551-87.259,83.653
						C522.905,676.865,562.052,714.402,610.164,714.402z"/>
    <path fill="#00FFFF" d="M610.164,476.643h60.722c13.649,0,24.767-10.649,24.767-23.761c0-13.081-11.117-23.742-24.767-23.742
						h-60.722c-20.777,0-37.684-16.221-37.684-36.174c0-19.927,16.906-36.15,37.684-36.15h175.048
						c13.675,0,24.79-10.657,24.79-23.747c0-13.104-11.115-23.756-24.79-23.756H610.164c-48.112,0-87.259,37.528-87.259,83.653
						C522.905,439.119,562.052,476.643,610.164,476.643z"/>
    <path fill="#BF9D5A" d="M740.961,547.069l-61.634-0.001c-13.629,0-24.752,10.66-24.752,23.745
						c0,13.102,11.123,23.751,24.752,23.751h61.634c48.08,0,87.217-37.521,87.217-83.654c0-46.133-39.137-83.679-87.217-83.679
						h-0.51c-13.667,0-24.773,10.679-24.773,23.756c0,13.116,11.106,23.766,24.773,23.766h0.51
						c20.768,0,37.692,16.203,37.692,36.157C778.653,530.833,761.729,547.069,740.961,547.069z"/>
</svg>
