<svg width="1282.6000000000001" height="1933.8000000000002" xmlns="http://www.w3.org/2000/svg" xmlns:xlink="http://www.w3.org/1999/xlink"><line x1="205.9375" y1="6.0" x2="205.9375" y2="29.0" style="stroke:black; stroke-width:1px;" />
<line x1="205.9375" y1="35.0" x2="172.6875" y2="58.0" style="stroke:black; stroke-width:1px;" />
<line x1="172.6875" y1="64.0" x2="172.6875" y2="87.0" style="stroke:black; stroke-width:1px;" />
<line x1="172.6875" y1="93.0" x2="172.6875" y2="116.0" style="stroke:black; stroke-width:1px;" />
<line x1="172.6875" y1="122.0" x2="70.1875" y2="145.0" style="stroke:black; stroke-width:1px;" />
<line x1="70.1875" y1="151.0" x2="70.1875" y2="174.0" style="stroke:black; stroke-width:1px;" />
<line x1="172.6875" y1="122.0" x2="126.1875" y2="145.0" style="stroke:black; stroke-width:1px;" />
<line x1="172.6875" y1="122.0" x2="170.1875" y2="145.0" style="stroke:black; stroke-width:1px;" />
<line x1="170.1875" y1="151.0" x2="170.1875" y2="174.0" style="stroke:black; stroke-width:1px;" />
<line x1="172.6875" y1="122.0" x2="275.1875" y2="145.0" style="stroke:black; stroke-width:1px;" />
<line x1="275.1875" y1="151.0" x2="209.1875" y2="174.0" style="stroke:black; stroke-width:1px;" />
<line x1="275.1875" y1="151.0" x2="275.1875" y2="174.0" style="stroke:black; stroke-width:1px;" />
<line x1="275.1875" y1="180.0" x2="275.1875" y2="203.0" style="stroke:black; stroke-width:1px;" />
<line x1="275.1875" y1="209.0" x2="275.1875" y2="232.0" style="stroke:black; stroke-width:1px;" />
<line x1="275.1875" y1="238.0" x2="39.0" y2="261.0" style="stroke:black; stroke-width:1px;" />
<line x1="39.0" y1="267.0" x2="39.0" y2="290.0" style="stroke:black; stroke-width:1px;" />
<line x1="275.1875" y1="238.0" x2="124.0" y2="261.0" style="stroke:black; stroke-width:1px;" />
<line x1="124.0" y1="267.0" x2="124.0" y2="290.0" style="stroke:black; stroke-width:1px;" />
<line x1="275.1875" y1="238.0" x2="221.25" y2="261.0" style="stroke:black; stroke-width:1px;" />
<line x1="221.25" y1="267.0" x2="161.5" y2="290.0" style="stroke:black; stroke-width:1px;" />
<line x1="161.5" y1="296.0" x2="161.5" y2="319.0" style="stroke:black; stroke-width:1px;" />
<line x1="221.25" y1="267.0" x2="281.0" y2="290.0" style="stroke:black; stroke-width:1px;" />
<line x1="281.0" y1="296.0" x2="202.5" y2="319.0" style="stroke:black; stroke-width:1px;" />
<line x1="202.5" y1="325.0" x2="202.5" y2="348.0" style="stroke:black; stroke-width:1px;" />
<line x1="281.0" y1="296.0" x2="235.5" y2="319.0" style="stroke:black; stroke-width:1px;" />
<line x1="281.0" y1="296.0" x2="297.5" y2="319.0" style="stroke:black; stroke-width:1px;" />
<line x1="297.5" y1="325.0" x2="297.5" y2="348.0" style="stroke:black; stroke-width:1px;" />
<line x1="297.5" y1="354.0" x2="297.5" y2="377.0" style="stroke:black; stroke-width:1px;" />
<line x1="297.5" y1="383.0" x2="253.75" y2="406.0" style="stroke:black; stroke-width:1px;" />
<line x1="253.75" y1="412.0" x2="253.75" y2="435.0" style="stroke:black; stroke-width:1px;" />
<line x1="253.75" y1="441.0" x2="253.75" y2="464.0" style="stroke:black; stroke-width:1px;" />
<line x1="253.75" y1="470.0" x2="181.25" y2="493.0" style="stroke:black; stroke-width:1px;" />
<line x1="181.25" y1="499.0" x2="181.25" y2="522.0" style="stroke:black; stroke-width:1px;" />
<line x1="181.25" y1="528.0" x2="181.25" y2="551.0" style="stroke:black; stroke-width:1px;" />
<line x1="181.25" y1="557.0" x2="181.25" y2="580.0" style="stroke:black; stroke-width:1px;" />
<line x1="253.75" y1="470.0" x2="326.25" y2="493.0" style="stroke:black; stroke-width:1px;" />
<line x1="326.25" y1="499.0" x2="319.25" y2="522.0" style="stroke:black; stroke-width:1px;" />
<line x1="326.25" y1="499.0" x2="333.25" y2="522.0" style="stroke:black; stroke-width:1px;" />
<line x1="297.5" y1="383.0" x2="341.25" y2="406.0" style="stroke:black; stroke-width:1px;" />
<line x1="341.25" y1="412.0" x2="341.25" y2="435.0" style="stroke:black; stroke-width:1px;" />
<line x1="341.25" y1="441.0" x2="341.25" y2="464.0" style="stroke:black; stroke-width:1px;" />
<line x1="281.0" y1="296.0" x2="359.5" y2="319.0" style="stroke:black; stroke-width:1px;" />
<line x1="275.1875" y1="238.0" x2="511.375" y2="261.0" style="stroke:black; stroke-width:1px;" />
<line x1="511.375" y1="267.0" x2="511.375" y2="290.0" style="stroke:black; stroke-width:1px;" />
<line x1="511.375" y1="296.0" x2="457.875" y2="319.0" style="stroke:black; stroke-width:1px;" />
<line x1="511.375" y1="296.0" x2="511.375" y2="319.0" style="stroke:black; stroke-width:1px;" />
<line x1="511.375" y1="325.0" x2="511.375" y2="348.0" style="stroke:black; stroke-width:1px;" />
<line x1="511.375" y1="354.0" x2="511.375" y2="377.0" style="stroke:black; stroke-width:1px;" />
<line x1="511.375" y1="383.0" x2="511.375" y2="406.0" style="stroke:black; stroke-width:1px;" />
<line x1="511.375" y1="412.0" x2="511.375" y2="435.0" style="stroke:black; stroke-width:1px;" />
<line x1="511.375" y1="441.0" x2="479.375" y2="464.0" style="stroke:black; stroke-width:1px;" />
<line x1="479.375" y1="470.0" x2="479.375" y2="493.0" style="stroke:black; stroke-width:1px;" />
<line x1="479.375" y1="499.0" x2="370.75" y2="522.0" style="stroke:black; stroke-width:1px;" />
<line x1="370.75" y1="528.0" x2="321.0" y2="551.0" style="stroke:black; stroke-width:1px;" />
<line x1="321.0" y1="557.0" x2="321.0" y2="580.0" style="stroke:black; stroke-width:1px;" />
<line x1="321.0" y1="586.0" x2="321.0" y2="609.0" style="stroke:black; stroke-width:1px;" />
<line x1="370.75" y1="528.0" x2="388.0" y2="551.0" style="stroke:black; stroke-width:1px;" />
<line x1="370.75" y1="528.0" x2="420.5" y2="551.0" style="stroke:black; stroke-width:1px;" />
<line x1="420.5" y1="557.0" x2="420.5" y2="580.0" style="stroke:black; stroke-width:1px;" />
<line x1="479.375" y1="499.0" x2="420.875" y2="522.0" style="stroke:black; stroke-width:1px;" />
<line x1="479.375" y1="499.0" x2="466.0" y2="522.0" style="stroke:black; stroke-width:1px;" />
<line x1="466.0" y1="528.0" x2="466.0" y2="551.0" style="stroke:black; stroke-width:1px;" />
<line x1="479.375" y1="499.0" x2="499.0" y2="522.0" style="stroke:black; stroke-width:1px;" />
<line x1="479.375" y1="499.0" x2="543.5" y2="522.0" style="stroke:black; stroke-width:1px;" />
<line x1="543.5" y1="528.0" x2="543.5" y2="551.0" style="stroke:black; stroke-width:1px;" />
<line x1="543.5" y1="557.0" x2="543.5" y2="580.0" style="stroke:black; stroke-width:1px;" />
<line x1="543.5" y1="586.0" x2="543.5" y2="609.0" style="stroke:black; stroke-width:1px;" />
<line x1="543.5" y1="615.0" x2="543.5" y2="638.0" style="stroke:black; stroke-width:1px;" />
<line x1="543.5" y1="644.0" x2="543.5" y2="667.0" style="stroke:black; stroke-width:1px;" />
<line x1="543.5" y1="673.0" x2="543.5" y2="696.0" style="stroke:black; stroke-width:1px;" />
<line x1="543.5" y1="702.0" x2="543.5" y2="725.0" style="stroke:black; stroke-width:1px;" />
<line x1="543.5" y1="731.0" x2="543.5" y2="754.0" style="stroke:black; stroke-width:1px;" />
<line x1="543.5" y1="760.0" x2="543.5" y2="783.0" style="stroke:black; stroke-width:1px;" />
<line x1="543.5" y1="789.0" x2="543.5" y2="812.0" style="stroke:black; stroke-width:1px;" />
<line x1="543.5" y1="818.0" x2="543.5" y2="841.0" style="stroke:black; stroke-width:1px;" />
<line x1="543.5" y1="847.0" x2="543.5" y2="870.0" style="stroke:black; stroke-width:1px;" />
<line x1="543.5" y1="876.0" x2="445.75" y2="899.0" style="stroke:black; stroke-width:1px;" />
<line x1="445.75" y1="905.0" x2="379.75" y2="928.0" style="stroke:black; stroke-width:1px;" />
<line x1="379.75" y1="934.0" x2="379.75" y2="957.0" style="stroke:black; stroke-width:1px;" />
<line x1="379.75" y1="963.0" x2="379.75" y2="986.0" style="stroke:black; stroke-width:1px;" />
<line x1="379.75" y1="992.0" x2="379.75" y2="1015.0" style="stroke:black; stroke-width:1px;" />
<line x1="379.75" y1="1021.0" x2="379.75" y2="1044.0" style="stroke:black; stroke-width:1px;" />
<line x1="379.75" y1="1050.0" x2="379.75" y2="1073.0" style="stroke:black; stroke-width:1px;" />
<line x1="379.75" y1="1079.0" x2="379.75" y2="1102.0" style="stroke:black; stroke-width:1px;" />
<line x1="379.75" y1="1108.0" x2="379.75" y2="1131.0" style="stroke:black; stroke-width:1px;" />
<line x1="379.75" y1="1137.0" x2="379.75" y2="1160.0" style="stroke:black; stroke-width:1px;" />
<line x1="445.75" y1="905.0" x2="439.75" y2="928.0" style="stroke:black; stroke-width:1px;" />
<line x1="445.75" y1="905.0" x2="511.75" y2="928.0" style="stroke:black; stroke-width:1px;" />
<line x1="511.75" y1="934.0" x2="511.75" y2="957.0" style="stroke:black; stroke-width:1px;" />
<line x1="511.75" y1="963.0" x2="511.75" y2="986.0" style="stroke:black; stroke-width:1px;" />
<line x1="511.75" y1="992.0" x2="511.75" y2="1015.0" style="stroke:black; stroke-width:1px;" />
<line x1="511.75" y1="1021.0" x2="511.75" y2="1044.0" style="stroke:black; stroke-width:1px;" />
<line x1="511.75" y1="1050.0" x2="511.75" y2="1073.0" style="stroke:black; stroke-width:1px;" />
<line x1="511.75" y1="1079.0" x2="511.75" y2="1102.0" style="stroke:black; stroke-width:1px;" />
<line x1="511.75" y1="1108.0" x2="511.75" y2="1131.0" style="stroke:black; stroke-width:1px;" />
<line x1="543.5" y1="876.0" x2="537.5" y2="899.0" style="stroke:black; stroke-width:1px;" />
<line x1="543.5" y1="876.0" x2="641.25" y2="899.0" style="stroke:black; stroke-width:1px;" />
<line x1="641.25" y1="905.0" x2="641.25" y2="928.0" style="stroke:black; stroke-width:1px;" />
<line x1="641.25" y1="934.0" x2="641.25" y2="957.0" style="stroke:black; stroke-width:1px;" />
<line x1="641.25" y1="963.0" x2="641.25" y2="986.0" style="stroke:black; stroke-width:1px;" />
<line x1="641.25" y1="992.0" x2="641.25" y2="1015.0" style="stroke:black; stroke-width:1px;" />
<line x1="641.25" y1="1021.0" x2="641.25" y2="1044.0" style="stroke:black; stroke-width:1px;" />
<line x1="641.25" y1="1050.0" x2="641.25" y2="1073.0" style="stroke:black; stroke-width:1px;" />
<line x1="641.25" y1="1079.0" x2="641.25" y2="1102.0" style="stroke:black; stroke-width:1px;" />
<line x1="479.375" y1="499.0" x2="588.0" y2="522.0" style="stroke:black; stroke-width:1px;" />
<line x1="511.375" y1="441.0" x2="543.375" y2="464.0" style="stroke:black; stroke-width:1px;" />
<line x1="511.375" y1="296.0" x2="564.875" y2="319.0" style="stroke:black; stroke-width:1px;" />
<line x1="275.1875" y1="151.0" x2="341.1875" y2="174.0" style="stroke:black; stroke-width:1px;" />
<line x1="205.9375" y1="35.0" x2="239.1875" y2="58.0" style="stroke:black; stroke-width:1px;" />
<rect x="142.1875" y="174.0" width="56.0" height="12.0" style="fill:orange; stroke:rgb(0,0,0);" rx="1"/>
<text x="144" y="183" style="font-family:sans-serif;font-size:10px;">
HelloWorld
</text>
<rect x="183.25" y="261.0" width="76.0" height="12.0" style="fill:orange; stroke:rgb(0,0,0);" rx="1"/>
<text x="185" y="270" style="font-family:sans-serif;font-size:10px;">
methodHeader
</text>
<rect x="210.75" y="464.0" width="86.0" height="12.0" style="fill:orange; stroke:rgb(0,0,0);" rx="1"/>
<text x="212" y="473" style="font-family:sans-serif;font-size:10px;">
unannArrayType
</text>
<rect x="146.0" y="290.0" width="31.0" height="12.0" style="fill:orange; stroke:rgb(0,0,0);" rx="1"/>
<text x="148" y="299" style="font-family:sans-serif;font-size:10px;">
result
</text>
<rect x="343.75" y="522.0" width="54.0" height="12.0" style="fill:orange; stroke:rgb(0,0,0);" rx="1"/>
<text x="345" y="531" style="font-family:sans-serif;font-size:10px;">
typeName
</text>
<rect x="319.75" y="957.0" width="120.0" height="12.0" style="fill:orange; stroke:rgb(0,0,0);" rx="1"/>
<text x="321" y="966" style="font-family:sans-serif;font-size:10px;">
multiplicativeExpression
</text>
<rect x="0.0" y="261.0" width="78.0" height="12.0" style="fill:orange; stroke:rgb(0,0,0);" rx="1"/>
<text x="2" y="270" style="font-family:sans-serif;font-size:10px;">
methodModifier
</text>
<rect x="109.75" y="493.0" width="143.0" height="12.0" style="fill:orange; stroke:rgb(0,0,0);" rx="1"/>
<text x="111" y="502" style="font-family:sans-serif;font-size:10px;">
unannClassOrInterfaceType
</text>
<rect x="148.1875" y="145.0" width="44.0" height="12.0" style="fill:orange; stroke:rgb(0,0,0);" rx="1"/>
<text x="150" y="154" style="font-family:sans-serif;font-size:10px;">
identifier
</text>
<rect x="449.5" y="551.0" width="33.0" height="12.0" style="fill:orange; stroke:rgb(0,0,0);" rx="1"/>
<text x="451" y="560" style="font-family:sans-serif;font-size:10px;">
println
</text>
<rect x="510.0" y="522.0" width="67.0" height="12.0" style="fill:orange; stroke:rgb(0,0,0);" rx="1"/>
<text x="512" y="531" style="font-family:sans-serif;font-size:10px;">
argumentList
</text>
<rect x="434.75" y="928.0" width="10.0" height="12.0" style="fill:orange; stroke:rgb(0,0,0);" rx="1"/>
<text x="436" y="937" style="font-family:sans-serif;font-size:10px;">
+
</text>
<rect x="626.75" y="1073.0" width="29.0" height="12.0" style="fill:orange; stroke:rgb(0,0,0);" rx="1"/>
<text x="628" y="1082" style="font-family:sans-serif;font-size:10px;">
literal
</text>
<rect x="397.75" y="899.0" width="96.0" height="12.0" style="fill:orange; stroke:rgb(0,0,0);" rx="1"/>
<text x="399" y="908" style="font-family:sans-serif;font-size:10px;">
additiveExpression
</text>
<rect x="155.9375" y="29.0" width="100.0" height="12.0" style="fill:orange; stroke:rgb(0,0,0);" rx="1"/>
<text x="157" y="38" style="font-family:sans-serif;font-size:10px;">
ordinaryCompilation
</text>
<rect x="416.375" y="406.0" width="190.0" height="12.0" style="fill:orange; stroke:rgb(0,0,0);" rx="1"/>
<text x="418" y="415" style="font-family:sans-serif;font-size:10px;">
statementWithoutTrailingSubstatement
</text>
<rect x="556.25" y="1044.0" width="170.0" height="12.0" style="fill:orange; stroke:rgb(0,0,0);" rx="1"/>
<text x="558" y="1053" style="font-family:sans-serif;font-size:10px;">
primaryNoNewArray_lfno_primary
</text>
<rect x="484.5" y="725.0" width="118.0" height="12.0" style="fill:orange; stroke:rgb(0,0,0);" rx="1"/>
<text x="486" y="734" style="font-family:sans-serif;font-size:10px;">
exclusiveOrExpression
</text>
<rect x="205.1875" y="174.0" width="8.0" height="12.0" style="fill:orange; stroke:rgb(0,0,0);" rx="1"/>
<text x="207" y="183" style="font-family:sans-serif;font-size:10px;">
{
</text>
<rect x="198.75" y="435.0" width="110.0" height="12.0" style="fill:orange; stroke:rgb(0,0,0);" rx="1"/>
<text x="200" y="444" style="font-family:sans-serif;font-size:10px;">
unannReferenceType
</text>
<rect x="471.875" y="348.0" width="79.0" height="12.0" style="fill:orange; stroke:rgb(0,0,0);" rx="1"/>
<text x="473" y="357" style="font-family:sans-serif;font-size:10px;">
blockStatement
</text>
<rect x="331.75" y="928.0" width="96.0" height="12.0" style="fill:orange; stroke:rgb(0,0,0);" rx="1"/>
<text x="333" y="937" style="font-family:sans-serif;font-size:10px;">
additiveExpression
</text>
<rect x="365.25" y="1131.0" width="29.0" height="12.0" style="fill:orange; stroke:rgb(0,0,0);" rx="1"/>
<text x="367" y="1140" style="font-family:sans-serif;font-size:10px;">
literal
</text>
<rect x="54.1875" y="174.0" width="32.0" height="12.0" style="fill:orange; stroke:rgb(0,0,0);" rx="1"/>
<text x="56" y="183" style="font-family:sans-serif;font-size:10px;">
public
</text>
<rect x="319.25" y="435.0" width="44.0" height="12.0" style="fill:orange; stroke:rgb(0,0,0);" rx="1"/>
<text x="321" y="444" style="font-family:sans-serif;font-size:10px;">
identifier
</text>
<rect x="315.75" y="522.0" width="7.0" height="12.0" style="fill:orange; stroke:rgb(0,0,0);" rx="1"/>
<text x="317" y="531" style="font-family:sans-serif;font-size:10px;">
[
</text>
<rect x="495.0" y="522.0" width="8.0" height="12.0" style="fill:orange; stroke:rgb(0,0,0);" rx="1"/>
<text x="497" y="531" style="font-family:sans-serif;font-size:10px;">
(
</text>
<rect x="426.75" y="1073.0" width="170.0" height="12.0" style="fill:orange; stroke:rgb(0,0,0);" rx="1"/>
<text x="428" y="1082" style="font-family:sans-serif;font-size:10px;">
primaryNoNewArray_lfno_primary
</text>
<rect x="417.375" y="522.0" width="7.0" height="12.0" style="fill:orange; stroke:rgb(0,0,0);" rx="1"/>
<text x="419" y="531" style="font-family:sans-serif;font-size:10px;">
.
</text>
<rect x="212.6875" y="203.0" width="125.0" height="12.0" style="fill:orange; stroke:rgb(0,0,0);" rx="1"/>
<text x="214" y="212" style="font-family:sans-serif;font-size:10px;">
classMemberDeclaration
</text>
<rect x="451.75" y="928.0" width="120.0" height="12.0" style="fill:orange; stroke:rgb(0,0,0);" rx="1"/>
<text x="453" y="937" style="font-family:sans-serif;font-size:10px;">
multiplicativeExpression
</text>
<rect x="486.5" y="696.0" width="114.0" height="12.0" style="fill:orange; stroke:rgb(0,0,0);" rx="1"/>
<text x="488" y="705" style="font-family:sans-serif;font-size:10px;">
inclusiveOrExpression
</text>
<rect x="485.375" y="377.0" width="52.0" height="12.0" style="fill:orange; stroke:rgb(0,0,0);" rx="1"/>
<text x="487" y="386" style="font-family:sans-serif;font-size:10px;">
statement
</text>
<rect x="189.0" y="348.0" width="27.0" height="12.0" style="fill:orange; stroke:rgb(0,0,0);" rx="1"/>
<text x="191" y="357" style="font-family:sans-serif;font-size:10px;">
main
</text>
<rect x="466.25" y="1015.0" width="91.0" height="12.0" style="fill:orange; stroke:rgb(0,0,0);" rx="1"/>
<text x="468" y="1024" style="font-family:sans-serif;font-size:10px;">
postfixExpression
</text>
<rect x="398.5" y="551.0" width="44.0" height="12.0" style="fill:orange; stroke:rgb(0,0,0);" rx="1"/>
<text x="400" y="560" style="font-family:sans-serif;font-size:10px;">
identifier
</text>
<rect x="496.375" y="290.0" width="30.0" height="12.0" style="fill:orange; stroke:rgb(0,0,0);" rx="1"/>
<text x="498" y="299" style="font-family:sans-serif;font-size:10px;">
block
</text>
<rect x="312.75" y="493.0" width="27.0" height="12.0" style="fill:orange; stroke:rgb(0,0,0);" rx="1"/>
<text x="314" y="502" style="font-family:sans-serif;font-size:10px;">
dims
</text>
<rect x="227.6875" y="232.0" width="95.0" height="12.0" style="fill:orange; stroke:rgb(0,0,0);" rx="1"/>
<text x="229" y="241" style="font-family:sans-serif;font-size:10px;">
methodDeclaration
</text>
<rect x="334.25" y="1044.0" width="91.0" height="12.0" style="fill:orange; stroke:rgb(0,0,0);" rx="1"/>
<text x="336" y="1053" style="font-family:sans-serif;font-size:10px;">
postfixExpression
</text>
<rect x="109.0" y="290.0" width="30.0" height="12.0" style="fill:orange; stroke:rgb(0,0,0);" rx="1"/>
<text x="111" y="299" style="font-family:sans-serif;font-size:10px;">
static
</text>
<rect x="495.5" y="870.0" width="96.0" height="12.0" style="fill:orange; stroke:rgb(0,0,0);" rx="1"/>
<text x="497" y="879" style="font-family:sans-serif;font-size:10px;">
additiveExpression
</text>
<rect x="112.6875" y="116.0" width="120.0" height="12.0" style="fill:orange; stroke:rgb(0,0,0);" rx="1"/>
<text x="114" y="125" style="font-family:sans-serif;font-size:10px;">
normalClassDeclaration
</text>
<rect x="620.75" y="1015.0" width="41.0" height="12.0" style="fill:orange; stroke:rgb(0,0,0);" rx="1"/>
<text x="622" y="1024" style="font-family:sans-serif;font-size:10px;">
primary
</text>
<rect x="244.5" y="348.0" width="106.0" height="12.0" style="fill:orange; stroke:rgb(0,0,0);" rx="1"/>
<text x="246" y="357" style="font-family:sans-serif;font-size:10px;">
lastFormalParameter
</text>
<rect x="532.5" y="899.0" width="10.0" height="12.0" style="fill:orange; stroke:rgb(0,0,0);" rx="1"/>
<text x="534" y="908" style="font-family:sans-serif;font-size:10px;">
+
</text>
<rect x="355.5" y="319.0" width="8.0" height="12.0" style="fill:orange; stroke:rgb(0,0,0);" rx="1"/>
<text x="357" y="328" style="font-family:sans-serif;font-size:10px;">
)
</text>
<rect x="495.5" y="783.0" width="96.0" height="12.0" style="fill:orange; stroke:rgb(0,0,0);" rx="1"/>
<text x="497" y="792" style="font-family:sans-serif;font-size:10px;">
equalityExpression
</text>
<rect x="235.5" y="290.0" width="91.0" height="12.0" style="fill:orange; stroke:rgb(0,0,0);" rx="1"/>
<text x="237" y="299" style="font-family:sans-serif;font-size:10px;">
methodDeclarator
</text>
<rect x="165.25" y="580.0" width="32.0" height="12.0" style="fill:orange; stroke:rgb(0,0,0);" rx="1"/>
<text x="167" y="589" style="font-family:sans-serif;font-size:10px;">
String
</text>
<rect x="457.875" y="435.0" width="107.0" height="12.0" style="fill:orange; stroke:rgb(0,0,0);" rx="1"/>
<text x="459" y="444" style="font-family:sans-serif;font-size:10px;">
expressionStatement
</text>
<rect x="434.375" y="493.0" width="90.0" height="12.0" style="fill:orange; stroke:rgb(0,0,0);" rx="1"/>
<text x="436" y="502" style="font-family:sans-serif;font-size:10px;">
methodInvocation
</text>
<rect x="111.1875" y="145.0" width="30.0" height="12.0" style="fill:orange; stroke:rgb(0,0,0);" rx="1"/>
<text x="113" y="154" style="font-family:sans-serif;font-size:10px;">
class
</text>
<rect x="299.0" y="580.0" width="44.0" height="12.0" style="fill:orange; stroke:rgb(0,0,0);" rx="1"/>
<text x="301" y="589" style="font-family:sans-serif;font-size:10px;">
identifier
</text>
<rect x="302.75" y="1015.0" width="154.0" height="12.0" style="fill:orange; stroke:rgb(0,0,0);" rx="1"/>
<text x="304" y="1024" style="font-family:sans-serif;font-size:10px;">
unaryExpressionNotPlusMinus
</text>
<rect x="584.0" y="522.0" width="8.0" height="12.0" style="fill:orange; stroke:rgb(0,0,0);" rx="1"/>
<text x="586" y="531" style="font-family:sans-serif;font-size:10px;">
)
</text>
<rect x="219.6875" y="58.0" width="39.0" height="12.0" style="fill:orange; stroke:rgb(0,0,0);" rx="1"/>
<text x="221" y="67" style="font-family:sans-serif;font-size:10px;">
&lt;EOF&gt;
</text>
<rect x="167.4375" y="0.0" width="77.0" height="12.0" style="fill:orange; stroke:rgb(0,0,0);" rx="1"/>
<text x="169" y="9" style="font-family:sans-serif;font-size:10px;">
compilationUnit
</text>
<rect x="453.875" y="319.0" width="8.0" height="12.0" style="fill:orange; stroke:rgb(0,0,0);" rx="1"/>
<text x="455" y="328" style="font-family:sans-serif;font-size:10px;">
{
</text>
<rect x="506.75" y="1131.0" width="10.0" height="12.0" style="fill:orange; stroke:rgb(0,0,0);" rx="1"/>
<text x="508" y="1140" style="font-family:sans-serif;font-size:10px;">
1
</text>
<rect x="23.0" y="290.0" width="32.0" height="12.0" style="fill:orange; stroke:rgb(0,0,0);" rx="1"/>
<text x="25" y="299" style="font-family:sans-serif;font-size:10px;">
public
</text>
<rect x="564.25" y="957.0" width="154.0" height="12.0" style="fill:orange; stroke:rgb(0,0,0);" rx="1"/>
<text x="566" y="966" style="font-family:sans-serif;font-size:10px;">
unaryExpressionNotPlusMinus
</text>
<rect x="514.5" y="551.0" width="58.0" height="12.0" style="fill:orange; stroke:rgb(0,0,0);" rx="1"/>
<text x="516" y="560" style="font-family:sans-serif;font-size:10px;">
expression
</text>
<rect x="337.1875" y="174.0" width="8.0" height="12.0" style="fill:orange; stroke:rgb(0,0,0);" rx="1"/>
<text x="339" y="183" style="font-family:sans-serif;font-size:10px;">
}
</text>
<rect x="255.0" y="377.0" width="85.0" height="12.0" style="fill:orange; stroke:rgb(0,0,0);" rx="1"/>
<text x="257" y="386" style="font-family:sans-serif;font-size:10px;">
formalParameter
</text>
<rect x="329.75" y="522.0" width="7.0" height="12.0" style="fill:orange; stroke:rgb(0,0,0);" rx="1"/>
<text x="331" y="531" style="font-family:sans-serif;font-size:10px;">
]
</text>
<rect x="264.5" y="551.0" width="113.0" height="12.0" style="fill:orange; stroke:rgb(0,0,0);" rx="1"/>
<text x="266" y="560" style="font-family:sans-serif;font-size:10px;">
packageOrTypeName
</text>
<rect x="597.75" y="928.0" width="87.0" height="12.0" style="fill:orange; stroke:rgb(0,0,0);" rx="1"/>
<text x="599" y="937" style="font-family:sans-serif;font-size:10px;">
unaryExpression
</text>
<rect x="560.875" y="319.0" width="8.0" height="12.0" style="fill:orange; stroke:rgb(0,0,0);" rx="1"/>
<text x="562" y="328" style="font-family:sans-serif;font-size:10px;">
}
</text>
<rect x="180.5" y="319.0" width="44.0" height="12.0" style="fill:orange; stroke:rgb(0,0,0);" rx="1"/>
<text x="182" y="328" style="font-family:sans-serif;font-size:10px;">
identifier
</text>
<rect x="595.75" y="986.0" width="91.0" height="12.0" style="fill:orange; stroke:rgb(0,0,0);" rx="1"/>
<text x="597" y="995" style="font-family:sans-serif;font-size:10px;">
postfixExpression
</text>
<rect x="36.1875" y="145.0" width="68.0" height="12.0" style="fill:orange; stroke:rgb(0,0,0);" rx="1"/>
<text x="38" y="154" style="font-family:sans-serif;font-size:10px;">
classModifier
</text>
<rect x="497.25" y="1102.0" width="29.0" height="12.0" style="fill:orange; stroke:rgb(0,0,0);" rx="1"/>
<text x="499" y="1111" style="font-family:sans-serif;font-size:10px;">
literal
</text>
<rect x="491.25" y="1044.0" width="41.0" height="12.0" style="fill:orange; stroke:rgb(0,0,0);" rx="1"/>
<text x="493" y="1053" style="font-family:sans-serif;font-size:10px;">
primary
</text>
<rect x="505.0" y="754.0" width="77.0" height="12.0" style="fill:orange; stroke:rgb(0,0,0);" rx="1"/>
<text x="507" y="763" style="font-family:sans-serif;font-size:10px;">
andExpression
</text>
<rect x="359.25" y="1073.0" width="41.0" height="12.0" style="fill:orange; stroke:rgb(0,0,0);" rx="1"/>
<text x="361" y="1082" style="font-family:sans-serif;font-size:10px;">
primary
</text>
<rect x="478.875" y="261.0" width="65.0" height="12.0" style="fill:orange; stroke:rgb(0,0,0);" rx="1"/>
<text x="480" y="270" style="font-family:sans-serif;font-size:10px;">
methodBody
</text>
<rect x="328.25" y="464.0" width="26.0" height="12.0" style="fill:orange; stroke:rgb(0,0,0);" rx="1"/>
<text x="330" y="473" style="font-family:sans-serif;font-size:10px;">
args
</text>
<rect x="411.0" y="580.0" width="19.0" height="12.0" style="fill:orange; stroke:rgb(0,0,0);" rx="1"/>
<text x="413" y="589" style="font-family:sans-serif;font-size:10px;">
out
</text>
<rect x="85.0" y="261.0" width="78.0" height="12.0" style="fill:orange; stroke:rgb(0,0,0);" rx="1"/>
<text x="87" y="270" style="font-family:sans-serif;font-size:10px;">
methodModifier
</text>
<rect x="539.875" y="464.0" width="7.0" height="12.0" style="fill:orange; stroke:rgb(0,0,0);" rx="1"/>
<text x="541" y="473" style="font-family:sans-serif;font-size:10px;">
;
</text>
<rect x="220.1875" y="174.0" width="110.0" height="12.0" style="fill:orange; stroke:rgb(0,0,0);" rx="1"/>
<text x="222" y="183" style="font-family:sans-serif;font-size:10px;">
classBodyDeclaration
</text>
<rect x="53.75" y="522.0" width="255.0" height="12.0" style="fill:orange; stroke:rgb(0,0,0);" rx="1"/>
<text x="55" y="531" style="font-family:sans-serif;font-size:10px;">
unannClassType_lfno_unannClassOrInterfaceType
</text>
<rect x="468.875" y="319.0" width="85.0" height="12.0" style="fill:orange; stroke:rgb(0,0,0);" rx="1"/>
<text x="470" y="328" style="font-family:sans-serif;font-size:10px;">
blockStatements
</text>
<rect x="300.5" y="609.0" width="41.0" height="12.0" style="fill:orange; stroke:rgb(0,0,0);" rx="1"/>
<text x="302" y="618" style="font-family:sans-serif;font-size:10px;">
System
</text>
<rect x="425.875" y="464.0" width="107.0" height="12.0" style="fill:orange; stroke:rgb(0,0,0);" rx="1"/>
<text x="427" y="473" style="font-family:sans-serif;font-size:10px;">
statementExpression
</text>
<rect x="384.5" y="551.0" width="7.0" height="12.0" style="fill:orange; stroke:rgb(0,0,0);" rx="1"/>
<text x="386" y="560" style="font-family:sans-serif;font-size:10px;">
.
</text>
<rect x="468.25" y="957.0" width="87.0" height="12.0" style="fill:orange; stroke:rgb(0,0,0);" rx="1"/>
<text x="470" y="966" style="font-family:sans-serif;font-size:10px;">
unaryExpression
</text>
<rect x="231.5" y="319.0" width="8.0" height="12.0" style="fill:orange; stroke:rgb(0,0,0);" rx="1"/>
<text x="233" y="328" style="font-family:sans-serif;font-size:10px;">
(
</text>
<rect x="336.25" y="986.0" width="87.0" height="12.0" style="fill:orange; stroke:rgb(0,0,0);" rx="1"/>
<text x="338" y="995" style="font-family:sans-serif;font-size:10px;">
unaryExpression
</text>
<rect x="492.5" y="812.0" width="102.0" height="12.0" style="fill:orange; stroke:rgb(0,0,0);" rx="1"/>
<text x="494" y="821" style="font-family:sans-serif;font-size:10px;">
relationalExpression
</text>
<rect x="149.5" y="319.0" width="24.0" height="12.0" style="fill:orange; stroke:rgb(0,0,0);" rx="1"/>
<text x="151" y="328" style="font-family:sans-serif;font-size:10px;">
void
</text>
<rect x="130.1875" y="87.0" width="85.0" height="12.0" style="fill:orange; stroke:rgb(0,0,0);" rx="1"/>
<text x="132" y="96" style="font-family:sans-serif;font-size:10px;">
classDeclaration
</text>
<rect x="444.0" y="522.0" width="44.0" height="12.0" style="fill:orange; stroke:rgb(0,0,0);" rx="1"/>
<text x="446" y="531" style="font-family:sans-serif;font-size:10px;">
identifier
</text>
<rect x="246.5" y="319.0" width="102.0" height="12.0" style="fill:orange; stroke:rgb(0,0,0);" rx="1"/>
<text x="248" y="328" style="font-family:sans-serif;font-size:10px;">
formalParameterList
</text>
<rect x="361.75" y="1160.0" width="36.0" height="12.0" style="fill:orange; stroke:rgb(0,0,0);" rx="1"/>
<text x="363" y="1169" style="font-family:sans-serif;font-size:10px;">
"Hello"
</text>
<rect x="132.6875" y="58.0" width="80.0" height="12.0" style="fill:orange; stroke:rgb(0,0,0);" rx="1"/>
<text x="134" y="67" style="font-family:sans-serif;font-size:10px;">
typeDeclaration
</text>
<rect x="159.25" y="551.0" width="44.0" height="12.0" style="fill:orange; stroke:rgb(0,0,0);" rx="1"/>
<text x="161" y="560" style="font-family:sans-serif;font-size:10px;">
identifier
</text>
<rect x="482.0" y="638.0" width="123.0" height="12.0" style="fill:orange; stroke:rgb(0,0,0);" rx="1"/>
<text x="484" y="647" style="font-family:sans-serif;font-size:10px;">
conditionalOrExpression
</text>
<rect x="294.75" y="1102.0" width="170.0" height="12.0" style="fill:orange; stroke:rgb(0,0,0);" rx="1"/>
<text x="296" y="1111" style="font-family:sans-serif;font-size:10px;">
primaryNoNewArray_lfno_primary
</text>
<rect x="488.5" y="609.0" width="110.0" height="12.0" style="fill:orange; stroke:rgb(0,0,0);" rx="1"/>
<text x="490" y="618" style="font-family:sans-serif;font-size:10px;">
conditionalExpression
</text>
<rect x="434.75" y="986.0" width="154.0" height="12.0" style="fill:orange; stroke:rgb(0,0,0);" rx="1"/>
<text x="436" y="995" style="font-family:sans-serif;font-size:10px;">
unaryExpressionNotPlusMinus
</text>
<rect x="486.0" y="580.0" width="115.0" height="12.0" style="fill:orange; stroke:rgb(0,0,0);" rx="1"/>
<text x="488" y="589" style="font-family:sans-serif;font-size:10px;">
assignmentExpression
</text>
<rect x="504.0" y="841.0" width="79.0" height="12.0" style="fill:orange; stroke:rgb(0,0,0);" rx="1"/>
<text x="506" y="850" style="font-family:sans-serif;font-size:10px;">
shiftExpression
</text>
<rect x="247.6875" y="145.0" width="55.0" height="12.0" style="fill:orange; stroke:rgb(0,0,0);" rx="1"/>
<text x="249" y="154" style="font-family:sans-serif;font-size:10px;">
classBody
</text>
<rect x="290.25" y="406.0" width="102.0" height="12.0" style="fill:orange; stroke:rgb(0,0,0);" rx="1"/>
<text x="292" y="415" style="font-family:sans-serif;font-size:10px;">
variableDeclaratorId
</text>
<rect x="224.25" y="406.0" width="59.0" height="12.0" style="fill:orange; stroke:rgb(0,0,0);" rx="1"/>
<text x="226" y="415" style="font-family:sans-serif;font-size:10px;">
unannType
</text>
<rect x="479.0" y="667.0" width="129.0" height="12.0" style="fill:orange; stroke:rgb(0,0,0);" rx="1"/>
<text x="481" y="676" style="font-family:sans-serif;font-size:10px;">
conditionalAndExpression
</text>
<rect x="581.25" y="899.0" width="120.0" height="12.0" style="fill:orange; stroke:rgb(0,0,0);" rx="1"/>
<text x="583" y="908" style="font-family:sans-serif;font-size:10px;">
multiplicativeExpression
</text>
<rect x="621.25" y="1102.0" width="40.0" height="12.0" style="fill:orange; stroke:rgb(0,0,0);" rx="1"/>
<text x="623" y="1111" style="font-family:sans-serif;font-size:10px;">
"World"
</text>
</svg>