<?xml version="1.0" standalone="no"?><!DOCTYPE svg PUBLIC "-//W3C//DTD SVG 1.1//EN" "http://www.w3.org/Graphics/SVG/1.1/DTD/svg11.dtd"><svg t="1613728520304" class="icon" viewBox="0 0 1024 1024" version="1.1" xmlns="http://www.w3.org/2000/svg" p-id="1530" xmlns:xlink="http://www.w3.org/1999/xlink" width="200" height="200"><defs><style type="text/css"></style></defs><path d="M867 802c-1.1 0-2.2-0.1-3.3-0.2-32.3-4.3-100.7-41.4-137.5-61.3-3-1.7-5.9-3.2-8.6-4.7-39-21-78.4-50.5-117.1-87.6-13.5-13-25.5-16.7-35.2-19.8-8.5-2.7-14.6-4.6-20.9-12.1l-6.2-7.3-8.3 6.3c-4.9 3.8-5.3 4.1-9.6 4.1h-0.6l-4.9 0.6c-5.5-0.1-10.7-2-15.1-5.5l-7.6-6.2-6.3 7.5c-6.2 7.4-13.6 9.4-23.9 12.2-11.4 3.1-25.6 7-39.5 20.2-38.7 37.1-78.1 66.6-117.1 87.6-2.7 1.5-5.6 3-8.6 4.7-36.8 19.9-105.2 57-137.5 61.3-1.1 0.1-2.2 0.2-3.3 0.2-6.7 0-13-2.7-17.7-7.5-4.8-4.9-7.3-11.3-7.1-18.1 0.3-12.4 9.4-22.5 21.5-24.2 85-11.4 198.6-105 235.3-140.1 16.7-16.1 33.4-33.7 49.4-52.3l14.2-16.5H280c-13.8 0-25-11.2-25-25s11.2-25 25-25h207v-89H280c-13.8 0-25-11.2-25-25s11.2-25 25-25h207V251H280c-13.8 0-25-11.2-25-25s11.2-25 25-25h207V98.9c0-13.8 11.2-25 25-25s25 11.2 25 25V201h207c13.8 0 25 11.2 25 25s-11.2 25-25 25H537v103.2h207c13.8 0 25 11.2 25 25s-11.2 25-25 25H537v89h207c13.8 0 25 11.2 25 25s-11.2 25-25 25H571.5l14.2 16.5c16.1 18.7 32.7 36.3 49.4 52.3 36.6 35.1 150.3 128.7 235.3 140.1 12.2 1.6 21.2 11.8 21.5 24.2 0.2 6.8-2.4 13.2-7.1 18.1-4.8 4.9-11.1 7.6-17.8 7.6z" fill="#ED393A" p-id="1531"></path><path d="M512 83.9c8.3 0 15 6.7 15 15V211h217c8.3 0 15 6.7 15 15s-6.7 15-15 15H527v123.2h217c8.3 0 15 6.7 15 15s-6.7 15-15 15H527v109h217c8.3 0 15 6.7 15 15s-6.7 15-15 15H549.6l28.4 33c16.3 18.9 33.1 36.8 50.1 53C665.5 655 781.4 750.3 869 762.1c7.3 1 12.7 7.1 12.9 14.5 0.1 4.1-1.4 8-4.3 10.9-2.8 2.9-6.6 4.5-10.6 4.5-0.7 0-1.3 0-2-0.1-30.5-4.1-97.9-40.6-134.1-60.2-3.1-1.7-5.9-3.2-8.6-4.7-38.2-20.6-76.8-49.5-114.9-86.1-15.2-14.6-29-18.9-39.1-22.1-8.1-2.6-11.8-3.7-16.3-9l-12.3-14.7-15.2 11.7-0.7 0.5c-0.9 0.7-2 1.5-2.6 2h-2l-1.2 0.1-3.5 0.4c-3.8-0.2-6.7-1.9-8.4-3.3l-15.3-12.3-12.6 15.1c-4 4.8-9 6.3-18.9 9-11.9 3.2-28.1 7.6-43.8 22.6-38.1 36.5-76.8 65.5-114.9 86.1-2.7 1.5-5.6 3-8.6 4.7-36.2 19.6-103.5 56.1-134.1 60.2-0.7 0.1-1.4 0.1-2 0.1-4 0-7.7-1.6-10.6-4.5-2.9-2.9-4.4-6.8-4.3-10.9 0.2-7.4 5.6-13.5 12.9-14.5 87.6-11.7 203.6-107.1 240.9-142.8 17-16.3 33.8-34.1 50.1-53l28.4-33H280c-8.3 0-15-6.7-15-15s6.7-15 15-15h217v-109H280c-8.3 0-15-6.7-15-15s6.7-15 15-15h217V241H280c-8.3 0-15-6.7-15-15s6.7-15 15-15h217V98.9c0-8.2 6.7-15 15-15m0-20c-19.3 0-35 15.7-35 35V191H280c-19.3 0-35 15.8-35 35s15.8 35 35 35h197v83.2H280c-19.3 0-35 15.8-35 35s15.8 35 35 35h197v69H280c-19.3 0-35 15.8-35 35s15.8 35 35 35h149.7c-13.9 16.2-30.3 33.9-48.8 51.6-47.4 45.4-154.6 127.4-229.7 137.4-17 2.3-29.8 16.7-30.2 33.8-0.5 19.9 15.6 35.9 34.8 35.9 1.5 0 3.1-0.1 4.7-0.3 36.8-4.9 111.8-46.7 149.6-67.1 39.7-21.4 79.9-51.5 119.3-89.2 23.6-22.7 47.5-13.3 64.2-33.2 6 4.8 13.6 7.8 21.9 7.8l4.9-0.6c8 0 10.4-2.1 16.3-6.7 16.6 19.8 33.5 10.2 56.9 32.7 39.4 37.8 79.5 67.8 119.3 89.2 37.7 20.3 112.8 62.2 149.6 67.1 1.6 0.2 3.1 0.3 4.7 0.3 19.3 0 35.3-16 34.8-35.9-0.4-17.2-13.2-31.5-30.2-33.8-75.1-10.1-182.3-92-229.7-137.4-18.5-17.7-34.9-35.5-48.8-51.6H744c19.2 0 35-15.8 35-35 0-19.3-15.8-35-35-35H547v-69h197c19.2 0 35-15.8 35-35 0-19.3-15.8-35-35-35H547V261h197c19.2 0 35-15.8 35-35s-15.8-35-35-35H547V98.9c0-19.2-15.8-35-35-35z" fill="#771725" p-id="1532"></path><path d="M512 949.6c-98.4 0-178.5-80.1-178.5-178.5S413.6 592.5 512 592.5 690.5 672.6 690.5 771 610.4 949.6 512 949.6z m0-307.1c-70.9 0-128.5 57.7-128.5 128.5S441.1 899.6 512 899.6s128.5-57.7 128.5-128.5S582.9 642.5 512 642.5z" fill="#ED393A" p-id="1533"></path><path d="M512 602.5c92.9 0 168.5 75.6 168.5 168.5S604.9 939.6 512 939.6 343.5 864 343.5 771 419.1 602.5 512 602.5m0 307.1c76.4 0 138.5-62.1 138.5-138.5S588.4 632.5 512 632.5 373.5 694.7 373.5 771 435.6 909.6 512 909.6m0-327.1c-103.9 0-188.5 84.6-188.5 188.5S408.1 959.6 512 959.6 700.5 875 700.5 771.1 615.9 582.5 512 582.5z m0 307.1c-65.3 0-118.5-53.2-118.5-118.5S446.7 652.5 512 652.5 630.5 705.7 630.5 771 577.3 889.6 512 889.6z" fill="#771725" p-id="1534"></path><path d="M512 815.8c-24.7 0-44.8-20.1-44.8-44.8 0-24.7 20.1-44.8 44.8-44.8 24.7 0 44.8 20.1 44.8 44.8 0 24.7-20.1 44.8-44.8 44.8z" fill="#FFD400" p-id="1535"></path><path d="M512 736.3c19.2 0 34.8 15.6 34.8 34.8s-15.6 34.8-34.8 34.8-34.8-15.6-34.8-34.8 15.6-34.8 34.8-34.8m0-20c-30.2 0-54.8 24.5-54.8 54.8s24.5 54.8 54.8 54.8c30.2 0 54.8-24.5 54.8-54.8s-24.6-54.8-54.8-54.8z" fill="#771725" p-id="1536"></path></svg>